<?xml version="1.0" encoding="UTF-8"?>
<svg xmlns="http://www.w3.org/2000/svg" xmlns:xlink="http://www.w3.org/1999/xlink" width="570px" height="570px" viewBox="0 0 570 570" version="1.1">
<g id="surface1">
<path style=" stroke:none;fill-rule:nonzero;fill:rgb(0%,0%,0%);fill-opacity:1;" d="M 237.5 261.25 C 237.5 248.132812 248.132812 237.5 261.25 237.5 L 308.75 237.5 C 321.867188 237.5 332.5 248.132812 332.5 261.25 C 332.5 274.367188 321.867188 285 308.75 285 L 261.25 285 C 248.132812 285 237.5 274.367188 237.5 261.25 Z M 237.5 261.25 "/>
<path style=" stroke:none;fill-rule:nonzero;fill:rgb(0%,0%,0%);fill-opacity:1;" d="M 261.25 332.5 C 248.132812 332.5 237.5 343.132812 237.5 356.25 C 237.5 369.367188 248.132812 380 261.25 380 L 308.75 380 C 321.867188 380 332.5 369.367188 332.5 356.25 C 332.5 343.132812 321.867188 332.5 308.75 332.5 Z M 261.25 332.5 "/>
<path style=" stroke:none;fill-rule:evenodd;fill:rgb(0%,0%,0%);fill-opacity:1;" d="M 215.992188 112.792969 C 199.882812 95.769531 190 72.789062 190 47.5 L 237.5 47.5 C 237.5 73.734375 258.765625 95 285 95 C 311.234375 95 332.5 73.734375 332.5 47.5 L 380 47.5 C 380 72.789062 370.117188 95.769531 354.003906 112.792969 C 384.230469 129.554688 407.722656 156.984375 419.390625 190 L 451.25 190 C 464.367188 190 475 200.632812 475 213.75 C 475 226.867188 464.367188 237.5 451.25 237.5 L 427.5 237.5 L 427.5 285 L 451.25 285 C 464.367188 285 475 295.632812 475 308.75 C 475 321.867188 464.367188 332.5 451.25 332.5 L 427.5 332.5 L 427.5 380 L 451.25 380 C 464.367188 380 475 390.632812 475 403.75 C 475 416.867188 464.367188 427.5 451.25 427.5 L 419.390625 427.5 C 399.828125 482.847656 347.042969 522.5 285 522.5 C 222.953125 522.5 170.171875 482.847656 150.609375 427.5 L 118.75 427.5 C 105.632812 427.5 95 416.867188 95 403.75 C 95 390.632812 105.632812 380 118.75 380 L 142.5 380 L 142.5 332.5 L 118.75 332.5 C 105.632812 332.5 95 321.867188 95 308.75 C 95 295.632812 105.632812 285 118.75 285 L 142.5 285 L 142.5 237.5 L 118.75 237.5 C 105.632812 237.5 95 226.867188 95 213.75 C 95 200.632812 105.632812 190 118.75 190 L 150.609375 190 C 162.277344 156.984375 185.769531 129.554688 215.992188 112.792969 Z M 190 380 L 190 237.5 C 190 185.03125 232.53125 142.5 285 142.5 C 337.464844 142.5 380 185.03125 380 237.5 L 380 380 C 380 432.464844 337.464844 475 285 475 C 232.53125 475 190 432.464844 190 380 Z M 190 380 "/>
</g>
</svg>
