<?xml version="1.0" encoding="UTF-8"?>
<svg xmlns="http://www.w3.org/2000/svg" xmlns:xlink="http://www.w3.org/1999/xlink" width="570px" height="570px" viewBox="0 0 570 570" version="1.1">
<g id="surface1">
<path style=" stroke:none;fill-rule:nonzero;fill:rgb(100%,83.921569%,0%);fill-opacity:1;" d="M 71.25 498.75 L 71.25 71.25 L 498.75 71.25 L 498.75 498.75 Z M 71.25 498.75 "/>
<path style=" stroke:none;fill-rule:nonzero;fill:rgb(0%,0%,0.392157%);fill-opacity:1;" d="M 350.765625 391.246094 C 358.980469 404.59375 367.910156 417.382812 386.828125 417.382812 C 402.71875 417.382812 411.054688 409.484375 411.054688 398.5625 C 411.054688 385.484375 402.433594 380.84375 384.953125 373.230469 L 375.367188 369.144531 C 347.710938 357.414062 329.316406 342.710938 329.316406 311.660156 C 329.316406 283.039062 351.226562 261.261719 385.460938 261.261719 C 409.84375 261.261719 427.359375 269.703125 439.992188 291.816406 L 410.140625 310.898438 C 403.570312 299.167969 396.46875 294.546875 385.460938 294.546875 C 374.230469 294.546875 367.117188 301.636719 367.117188 310.898438 C 367.117188 322.347656 374.242188 326.976562 390.6875 334.066406 L 400.269531 338.152344 C 432.867188 352.035156 451.25 366.214844 451.25 398.085938 C 451.25 432.429688 424.128906 451.25 387.71875 451.25 C 352.105469 451.25 331.882812 433.378906 320.625 411.253906 Z M 213.179688 392.21875 C 219.1875 402.976562 228.320312 411.253906 241.453125 411.253906 C 254.019531 411.253906 261.25 406.292969 261.25 386.996094 L 261.25 261.25 L 300.828125 261.25 L 300.828125 393.074219 C 300.828125 433.058594 277.636719 451.25 243.769531 451.25 C 213.167969 451.25 191.082031 430.515625 182.078125 411.253906 Z M 213.179688 392.21875 "/>
</g>
</svg>
