<?xml version="1.0" encoding="UTF-8"?>
<svg xmlns="http://www.w3.org/2000/svg" xmlns:xlink="http://www.w3.org/1999/xlink" width="570px" height="570px" viewBox="0 0 570 402" version="1.1">
<g id="surface1">
<path style=" stroke:none;fill-rule:nonzero;fill:rgb(38.039216%,85.490196%,98.431373%);fill-opacity:1;" d="M 451.007812 200.222656 C 451.007812 178.277344 423.46875 157.476562 381.25 144.578125 C 390.992188 101.632812 386.660156 67.460938 367.582031 56.523438 C 363.183594 53.957031 358.039062 52.738281 352.425781 52.738281 L 352.425781 67.800781 C 355.539062 67.800781 358.039062 68.40625 360.136719 69.554688 C 369.339844 74.820312 373.332031 94.878906 370.21875 120.675781 C 369.476562 127.023438 368.257812 133.707031 366.769531 140.527344 C 353.507812 137.285156 339.027344 134.789062 323.804688 133.167969 C 314.667969 120.675781 305.195312 109.328125 295.65625 99.402344 C 317.714844 78.941406 338.417969 67.730469 352.492188 67.730469 L 352.492188 52.671875 C 333.886719 52.671875 309.527344 65.910156 284.898438 88.867188 C 260.269531 66.042969 235.910156 52.941406 217.304688 52.941406 L 217.304688 68 C 231.308594 68 252.082031 79.144531 274.140625 99.46875 C 264.667969 109.398438 255.195312 120.675781 246.195312 133.167969 C 230.90625 134.789062 216.425781 137.285156 203.164062 140.59375 C 201.605469 133.84375 200.457031 127.292969 199.644531 121.011719 C 196.464844 95.214844 200.390625 75.160156 209.523438 69.824219 C 211.554688 68.609375 214.191406 68.070312 217.304688 68.070312 L 217.304688 53.011719 C 211.621094 53.011719 206.476562 54.226562 202.011719 56.792969 C 183 67.730469 178.738281 101.832031 188.546875 144.648438 C 146.460938 157.613281 119.058594 178.34375 119.058594 200.222656 C 119.058594 222.171875 146.597656 242.96875 188.820312 255.867188 C 179.074219 298.816406 183.40625 332.984375 202.488281 343.925781 C 206.882812 346.492188 212.027344 347.707031 217.710938 347.707031 C 236.316406 347.707031 260.675781 334.472656 285.304688 311.511719 C 309.933594 334.335938 334.292969 347.4375 352.898438 347.4375 C 358.582031 347.4375 363.722656 346.222656 368.191406 343.65625 C 387.203125 332.714844 391.464844 298.613281 381.65625 255.800781 C 423.605469 242.902344 451.007812 222.101562 451.007812 200.222656 Z M 362.914062 155.179688 C 360.410156 163.894531 357.296875 172.875 353.777344 181.855469 C 351.003906 176.453125 348.09375 171.050781 344.914062 165.648438 C 341.800781 160.246094 338.488281 154.980469 335.171875 149.847656 C 344.777344 151.265625 354.050781 153.019531 362.914062 155.179688 Z M 331.921875 227.101562 C 326.644531 236.214844 321.234375 244.859375 315.617188 252.894531 C 305.535156 253.773438 295.320312 254.246094 285.035156 254.246094 C 274.816406 254.246094 264.601562 253.773438 254.585938 252.964844 C 248.96875 244.925781 243.488281 236.351562 238.210938 227.300781 C 233.070312 218.457031 228.402344 209.476562 224.136719 200.425781 C 228.332031 191.378906 233.070312 182.328125 238.144531 173.480469 C 243.421875 164.367188 248.835938 155.722656 254.449219 147.6875 C 264.53125 146.808594 274.75 146.335938 285.035156 146.335938 C 295.25 146.335938 305.46875 146.808594 315.480469 147.617188 C 321.097656 155.652344 326.578125 164.230469 331.855469 173.28125 C 337 182.125 341.667969 191.105469 345.929688 200.15625 C 341.667969 209.203125 337 218.253906 331.921875 227.101562 Z M 353.777344 218.320312 C 357.433594 227.371094 360.542969 236.417969 363.117188 245.199219 C 354.25 247.359375 344.914062 249.183594 335.238281 250.601562 C 338.554688 245.398438 341.871094 240.066406 344.980469 234.59375 C 348.09375 229.191406 351.003906 223.722656 353.777344 218.320312 Z M 285.167969 290.375 C 278.875 283.890625 272.585938 276.667969 266.359375 268.765625 C 272.449219 269.035156 278.671875 269.238281 284.964844 269.238281 C 291.328125 269.238281 297.617188 269.101562 303.777344 268.765625 C 297.6875 276.667969 291.394531 283.890625 285.167969 290.375 Z M 234.828125 250.601562 C 225.222656 249.183594 215.949219 247.425781 207.085938 245.265625 C 209.589844 236.554688 212.703125 227.574219 216.222656 218.589844 C 218.996094 223.992188 221.90625 229.394531 225.085938 234.796875 C 228.265625 240.199219 231.511719 245.46875 234.828125 250.601562 Z M 284.832031 110.070312 C 291.125 116.554688 297.414062 123.78125 303.640625 131.679688 C 297.550781 131.410156 291.328125 131.207031 285.035156 131.207031 C 278.671875 131.207031 272.382812 131.34375 266.222656 131.679688 C 272.3125 123.78125 278.605469 116.554688 284.832031 110.070312 Z M 234.761719 149.847656 C 231.445312 155.046875 228.128906 160.382812 225.019531 165.851562 C 221.90625 171.253906 218.996094 176.65625 216.222656 182.058594 C 212.566406 173.007812 209.457031 163.960938 206.882812 155.179688 C 215.75 153.089844 225.085938 151.265625 234.761719 149.847656 Z M 173.527344 234.394531 C 149.574219 224.195312 134.082031 210.824219 134.082031 200.222656 C 134.082031 189.621094 149.574219 176.183594 173.527344 166.054688 C 179.347656 163.554688 185.707031 161.328125 192.269531 159.234375 C 196.125 172.46875 201.199219 186.246094 207.492188 200.359375 C 201.269531 214.40625 196.261719 228.113281 192.472656 241.28125 C 185.773438 239.1875 179.414062 236.890625 173.527344 234.394531 Z M 209.929688 330.890625 C 200.726562 325.625 196.734375 305.570312 199.847656 279.773438 C 200.59375 273.425781 201.808594 266.738281 203.296875 259.917969 C 216.558594 263.160156 231.039062 265.660156 246.261719 267.28125 C 255.398438 279.773438 264.871094 291.117188 274.410156 301.042969 C 252.351562 321.503906 231.648438 332.714844 217.574219 332.714844 C 214.53125 332.648438 211.960938 332.039062 209.929688 330.890625 Z M 370.421875 279.433594 C 373.601562 305.230469 369.679688 325.285156 360.542969 330.621094 C 358.515625 331.835938 355.875 332.378906 352.761719 332.378906 C 338.757812 332.378906 317.984375 321.234375 295.925781 300.910156 C 305.398438 290.980469 314.871094 279.703125 323.871094 267.210938 C 339.164062 265.589844 353.644531 263.09375 366.90625 259.785156 C 368.460938 266.605469 369.679688 273.15625 370.421875 279.433594 Z M 396.472656 234.394531 C 390.652344 236.890625 384.292969 239.121094 377.730469 241.214844 C 373.875 227.976562 368.800781 214.203125 362.507812 200.089844 C 368.730469 186.042969 373.738281 172.332031 377.527344 159.164062 C 384.226562 161.257812 390.585938 163.554688 396.539062 166.054688 C 420.492188 176.25 435.988281 189.621094 435.988281 200.222656 C 435.917969 210.824219 420.425781 224.265625 396.472656 234.394531 Z M 217.238281 52.941406 Z M 217.238281 52.941406 "/>
<path style=" stroke:none;fill-rule:nonzero;fill:rgb(38.039216%,85.490196%,98.431373%);fill-opacity:1;" d="M 315.886719 200.222656 C 315.886719 217.265625 302.042969 231.085938 284.964844 231.085938 C 267.890625 231.085938 254.042969 217.265625 254.042969 200.222656 C 254.042969 183.179688 267.890625 169.363281 284.964844 169.363281 C 302.042969 169.363281 315.886719 183.179688 315.886719 200.222656 Z M 315.886719 200.222656 "/>
</g>
</svg>
