<?xml version="1.0" encoding="UTF-8"?>
<svg xmlns="http://www.w3.org/2000/svg" xmlns:xlink="http://www.w3.org/1999/xlink" width="570px" height="570px" viewBox="0 0 570 570" version="1.1">
<g id="surface1">
<path style=" stroke:none;fill-rule:nonzero;fill:rgb(98.039216%,82.352941%,30.196078%);fill-opacity:1;" d="M 570 285 C 570 442.402344 442.402344 570 285 570 C 127.597656 570 0 442.402344 0 285 C 0 127.597656 127.597656 0 285 0 C 442.402344 0 570 127.597656 570 285 Z M 570 285 "/>
<path style=" stroke:none;fill-rule:nonzero;fill:rgb(40%,40%,40%);fill-opacity:1;" d="M 54.949219 131.398438 L 467.445312 131.398438 C 481 131.398438 492.085938 142.484375 492.085938 156.039062 L 492.085938 410.140625 L 30.3125 410.140625 L 30.3125 156.039062 C 30.3125 142.484375 41.398438 131.398438 54.949219 131.398438 Z M 54.949219 131.398438 "/>
<path style=" stroke:none;fill-rule:nonzero;fill:rgb(100%,100%,100%);fill-opacity:1;" d="M 47.042969 393.410156 L 475.359375 393.410156 L 475.359375 156.039062 C 475.359375 151.726562 471.761719 148.128906 467.449219 148.128906 L 54.953125 148.128906 C 50.640625 148.128906 47.046875 151.726562 47.046875 156.039062 L 47.046875 393.410156 Z M 47.042969 393.410156 "/>
<path style=" stroke:none;fill-rule:nonzero;fill:rgb(92.54902%,94.117647%,94.509804%);fill-opacity:1;" d="M 55.910156 181.996094 L 466.492188 181.996094 L 466.492188 277.039062 L 55.910156 277.039062 Z M 55.910156 181.996094 "/>
<path style=" stroke:none;fill-rule:nonzero;fill:rgb(71.372549%,71.372549%,72.156863%);fill-opacity:1;" d="M 7.882812 410.140625 L 514.515625 410.140625 L 514.515625 424.371094 C 514.515625 432.199219 508.109375 438.601562 500.285156 438.601562 L 22.109375 438.601562 C 14.285156 438.601562 7.878906 432.199219 7.878906 424.371094 L 7.878906 410.140625 Z M 7.882812 410.140625 "/>
<path style=" stroke:none;fill-rule:nonzero;fill:rgb(56.862745%,56.862745%,56.862745%);fill-opacity:1;" d="M 210.632812 415.339844 L 311.765625 415.339844 L 300.933594 422.539062 L 221.464844 422.539062 L 210.628906 415.339844 Z M 210.632812 415.339844 "/>
<path style=" stroke:none;fill-rule:nonzero;fill:rgb(40%,40%,40%);fill-opacity:1;" d="M 368.640625 220.871094 L 520.152344 220.871094 C 524.957031 220.871094 528.851562 224.765625 528.851562 229.574219 L 528.851562 429.902344 C 528.851562 434.707031 524.957031 438.601562 520.152344 438.601562 L 368.640625 438.601562 C 363.835938 438.601562 359.941406 434.707031 359.941406 429.902344 L 359.941406 229.574219 C 359.941406 224.765625 363.835938 220.871094 368.640625 220.871094 Z M 368.640625 220.871094 "/>
<path style=" stroke:none;fill-rule:nonzero;fill:rgb(100%,100%,100%);fill-opacity:1;" d="M 370.519531 236.28125 L 518.277344 236.28125 C 518.835938 236.28125 519.285156 236.734375 519.285156 237.289062 L 519.285156 417.207031 C 519.285156 417.765625 518.835938 418.21875 518.277344 418.21875 L 370.519531 418.21875 C 369.960938 418.21875 369.507812 417.765625 369.507812 417.207031 L 369.507812 237.289062 C 369.507812 236.734375 369.960938 236.28125 370.519531 236.28125 Z M 370.519531 236.28125 "/>
<path style=" stroke:none;fill-rule:nonzero;fill:rgb(71.372549%,71.372549%,72.156863%);fill-opacity:1;" d="M 450.074219 428.042969 C 450.074219 431.179688 447.535156 433.71875 444.398438 433.71875 C 441.265625 433.71875 438.726562 431.179688 438.726562 428.042969 C 438.726562 424.910156 441.265625 422.371094 444.398438 422.371094 C 447.535156 422.371094 450.074219 424.910156 450.074219 428.042969 Z M 450.074219 428.042969 "/>
<path style=" stroke:none;fill-rule:nonzero;fill:rgb(92.54902%,94.117647%,94.509804%);fill-opacity:1;" d="M 377.394531 258.816406 L 511.40625 258.816406 L 511.40625 337.804688 L 377.394531 337.804688 Z M 377.394531 258.816406 "/>
<path style=" stroke:none;fill-rule:nonzero;fill:rgb(40%,40%,40%);fill-opacity:1;" d="M 487.507812 298.800781 L 557.703125 298.800781 C 560.140625 298.800781 562.121094 300.78125 562.121094 303.214844 L 562.121094 434.1875 C 562.121094 436.628906 560.140625 438.601562 557.703125 438.601562 L 487.507812 438.601562 C 485.066406 438.601562 483.09375 436.625 483.09375 434.1875 L 483.09375 303.214844 C 483.09375 300.78125 485.066406 298.800781 487.507812 298.800781 Z M 487.507812 298.800781 "/>
<path style=" stroke:none;fill-rule:nonzero;fill:rgb(100%,100%,100%);fill-opacity:1;" d="M 490.796875 311.886719 L 554.414062 311.886719 C 554.65625 311.886719 554.847656 312.085938 554.847656 312.320312 L 554.847656 425.078125 C 554.847656 425.320312 554.65625 425.515625 554.414062 425.515625 L 490.796875 425.515625 C 490.554688 425.515625 490.359375 425.320312 490.359375 425.078125 L 490.359375 312.320312 C 490.359375 312.085938 490.558594 311.886719 490.796875 311.886719 Z M 490.796875 311.886719 "/>
<path style=" stroke:none;fill-rule:nonzero;fill:rgb(71.372549%,71.372549%,72.156863%);fill-opacity:1;" d="M 526.601562 431.46875 C 526.601562 433.671875 524.816406 435.457031 522.609375 435.457031 C 520.40625 435.457031 518.617188 433.671875 518.617188 431.46875 C 518.617188 429.261719 520.40625 427.472656 522.609375 427.472656 C 524.816406 427.472656 526.601562 429.261719 526.601562 431.46875 Z M 526.601562 431.46875 "/>
<path style=" stroke:none;fill-rule:nonzero;fill:rgb(71.372549%,71.372549%,72.156863%);fill-opacity:1;" d="M 511.925781 306.007812 L 533.28125 306.007812 C 533.824219 306.007812 534.257812 306.441406 534.257812 306.980469 L 534.257812 306.984375 C 534.257812 307.527344 533.824219 307.960938 533.28125 307.960938 L 511.925781 307.960938 C 511.386719 307.960938 510.953125 307.527344 510.953125 306.984375 L 510.953125 306.980469 C 510.953125 306.441406 511.386719 306.007812 511.925781 306.007812 Z M 511.925781 306.007812 "/>
<path style=" stroke:none;fill-rule:nonzero;fill:rgb(12.941176%,81.568627%,76.470588%);fill-opacity:1;" d="M 475.359375 174.597656 L 47.042969 174.597656 L 47.042969 156.039062 C 47.042969 151.726562 50.636719 148.128906 54.949219 148.128906 L 467.445312 148.128906 C 471.761719 148.128906 475.355469 151.726562 475.355469 156.039062 L 475.355469 174.597656 Z M 475.359375 174.597656 "/>
<path style=" stroke:none;fill-rule:nonzero;fill:rgb(100%,100%,100%);fill-opacity:1;" d="M 229.828125 155.703125 L 449.234375 155.703125 C 450.851562 155.703125 452.167969 157.023438 452.167969 158.640625 L 452.167969 164.085938 C 452.167969 165.703125 450.851562 167.019531 449.234375 167.019531 L 229.828125 167.019531 C 228.210938 167.019531 226.890625 165.699219 226.890625 164.085938 L 226.890625 158.640625 C 226.890625 157.023438 228.214844 155.703125 229.828125 155.703125 Z M 229.828125 155.703125 "/>
<path style=" stroke:none;fill-rule:nonzero;fill:rgb(92.54902%,94.117647%,94.509804%);fill-opacity:1;" d="M 65.265625 155.503906 C 68.929688 155.503906 71.902344 158.472656 71.902344 162.144531 C 71.902344 165.808594 68.929688 168.78125 65.265625 168.78125 C 61.597656 168.78125 58.621094 165.808594 58.621094 162.144531 C 58.621094 158.472656 61.59375 155.503906 65.265625 155.503906 Z M 65.265625 155.503906 "/>
<path style=" stroke:none;fill-rule:nonzero;fill:rgb(92.54902%,94.117647%,94.509804%);fill-opacity:1;" d="M 91.46875 155.503906 C 95.136719 155.503906 98.105469 158.472656 98.105469 162.144531 C 98.105469 165.808594 95.136719 168.78125 91.46875 168.78125 C 87.804688 168.78125 84.832031 165.808594 84.832031 162.144531 C 84.832031 158.472656 87.804688 155.503906 91.46875 155.503906 Z M 91.46875 155.503906 "/>
<path style=" stroke:none;fill-rule:nonzero;fill:rgb(92.54902%,94.117647%,94.509804%);fill-opacity:1;" d="M 117.675781 155.503906 C 121.34375 155.503906 124.316406 158.472656 124.316406 162.144531 C 124.316406 165.808594 121.34375 168.78125 117.675781 168.78125 C 114.003906 168.78125 111.03125 165.808594 111.03125 162.144531 C 111.03125 158.472656 114.003906 155.503906 117.675781 155.503906 Z M 117.675781 155.503906 "/>
<path style=" stroke:none;fill-rule:nonzero;fill:rgb(100%,35.686275%,38.431373%);fill-opacity:1;" d="M 101.472656 299.96875 C 112.054688 299.96875 120.625 308.542969 120.625 319.121094 C 120.625 329.699219 112.054688 338.273438 101.472656 338.273438 C 90.902344 338.273438 82.324219 329.699219 82.324219 319.121094 C 82.324219 308.542969 90.902344 299.96875 101.472656 299.96875 Z M 101.472656 299.96875 "/>
<path style=" stroke:none;fill-rule:nonzero;fill:rgb(12.941176%,81.568627%,76.470588%);fill-opacity:1;" d="M 200.425781 299.96875 C 211 299.96875 219.574219 308.542969 219.574219 319.121094 C 219.574219 329.699219 211 338.273438 200.425781 338.273438 C 189.847656 338.273438 181.273438 329.699219 181.273438 319.121094 C 181.273438 308.542969 189.847656 299.96875 200.425781 299.96875 Z M 200.425781 299.96875 "/>
<path style=" stroke:none;fill-rule:nonzero;fill:rgb(86.27451%,89.019608%,85.882353%);fill-opacity:1;" d="M 73.996094 346.488281 L 128.957031 346.488281 L 128.957031 349.46875 L 73.996094 349.46875 Z M 73.996094 365.222656 L 110.914062 365.222656 L 110.914062 368.207031 L 73.996094 368.207031 Z M 73.996094 355.859375 L 128.957031 355.859375 L 128.957031 358.839844 L 73.996094 358.839844 Z M 73.996094 355.859375 "/>
<path style=" stroke:none;fill-rule:nonzero;fill:rgb(86.27451%,89.019608%,85.882353%);fill-opacity:1;" d="M 172.945312 346.488281 L 227.90625 346.488281 L 227.90625 349.46875 L 172.945312 349.46875 Z M 172.945312 365.222656 L 209.867188 365.222656 L 209.867188 368.207031 L 172.945312 368.207031 Z M 172.945312 355.859375 L 227.90625 355.859375 L 227.90625 358.839844 L 172.945312 358.839844 Z M 172.945312 355.859375 "/>
<path style=" stroke:none;fill-rule:nonzero;fill:rgb(98.039216%,82.352941%,30.196078%);fill-opacity:1;" d="M 305.457031 299.96875 C 316.03125 299.96875 324.609375 308.542969 324.609375 319.121094 C 324.609375 329.699219 316.03125 338.273438 305.457031 338.273438 C 294.882812 338.273438 286.304688 329.699219 286.304688 319.121094 C 286.304688 308.542969 294.882812 299.96875 305.457031 299.96875 Z M 305.457031 299.96875 "/>
<path style=" stroke:none;fill-rule:nonzero;fill:rgb(86.27451%,89.019608%,85.882353%);fill-opacity:1;" d="M 277.976562 346.488281 L 332.9375 346.488281 L 332.9375 349.46875 L 277.976562 349.46875 Z M 277.976562 365.222656 L 314.898438 365.222656 L 314.898438 368.207031 L 277.976562 368.207031 Z M 277.976562 355.859375 L 332.9375 355.859375 L 332.9375 358.839844 L 277.976562 358.839844 Z M 277.976562 355.859375 "/>
<path style=" stroke:none;fill-rule:nonzero;fill:rgb(100%,35.686275%,38.431373%);fill-opacity:1;" d="M 404.085938 349.1875 C 410.648438 349.1875 415.972656 354.507812 415.972656 361.074219 C 415.972656 367.636719 410.652344 372.957031 404.085938 372.957031 C 397.515625 372.957031 392.195312 367.636719 392.195312 361.074219 C 392.195312 354.503906 397.515625 349.1875 404.085938 349.1875 Z M 404.085938 349.1875 "/>
<path style=" stroke:none;fill-rule:nonzero;fill:rgb(86.27451%,89.019608%,85.882353%);fill-opacity:1;" d="M 387.027344 378.058594 L 421.140625 378.058594 L 421.140625 380.46875 L 387.027344 380.46875 Z M 387.027344 393.214844 L 409.941406 393.214844 L 409.941406 395.628906 L 387.027344 395.628906 Z M 387.027344 385.632812 L 421.140625 385.632812 L 421.140625 388.046875 L 387.027344 388.046875 Z M 387.027344 385.632812 "/>
<path style=" stroke:none;fill-rule:nonzero;fill:rgb(12.941176%,81.568627%,76.470588%);fill-opacity:1;" d="M 450.480469 349.1875 C 457.042969 349.1875 462.367188 354.507812 462.367188 361.074219 C 462.367188 367.636719 457.042969 372.957031 450.480469 372.957031 C 443.917969 372.957031 438.59375 367.636719 438.59375 361.074219 C 438.59375 354.503906 443.917969 349.1875 450.480469 349.1875 Z M 450.480469 349.1875 "/>
<path style=" stroke:none;fill-rule:nonzero;fill:rgb(86.27451%,89.019608%,85.882353%);fill-opacity:1;" d="M 433.425781 378.058594 L 467.539062 378.058594 L 467.539062 380.46875 L 433.425781 380.46875 Z M 433.425781 393.214844 L 456.339844 393.214844 L 456.339844 395.628906 L 433.425781 395.628906 Z M 433.425781 385.632812 L 467.539062 385.632812 L 467.539062 388.046875 L 433.425781 388.046875 Z M 433.425781 385.632812 "/>
<path style=" stroke:none;fill-rule:nonzero;fill:rgb(12.941176%,81.568627%,76.470588%);fill-opacity:1;" d="M 519.289062 253.585938 L 369.503906 253.585938 L 369.503906 237.292969 C 369.503906 236.734375 369.957031 236.285156 370.515625 236.285156 L 518.277344 236.285156 C 518.832031 236.285156 519.28125 236.734375 519.28125 237.292969 L 519.28125 253.585938 Z M 519.289062 253.585938 "/>
<path style=" stroke:none;fill-rule:nonzero;fill:rgb(92.54902%,94.117647%,94.509804%);fill-opacity:1;" d="M 380.605469 241.203125 C 382.761719 241.203125 384.507812 242.949219 384.507812 245.101562 C 384.507812 247.253906 382.761719 248.996094 380.605469 248.996094 C 378.457031 248.996094 376.710938 247.253906 376.710938 245.101562 C 376.710938 242.949219 378.457031 241.203125 380.605469 241.203125 Z M 380.605469 241.203125 "/>
<path style=" stroke:none;fill-rule:nonzero;fill:rgb(92.54902%,94.117647%,94.509804%);fill-opacity:1;" d="M 391.574219 241.203125 C 393.730469 241.203125 395.46875 242.949219 395.46875 245.101562 C 395.46875 247.253906 393.730469 248.996094 391.574219 248.996094 C 389.421875 248.996094 387.679688 247.253906 387.679688 245.101562 C 387.679688 242.949219 389.421875 241.203125 391.574219 241.203125 Z M 391.574219 241.203125 "/>
<path style=" stroke:none;fill-rule:nonzero;fill:rgb(92.54902%,94.117647%,94.509804%);fill-opacity:1;" d="M 402.546875 241.203125 C 404.695312 241.203125 406.4375 242.949219 406.4375 245.101562 C 406.4375 247.253906 404.695312 248.996094 402.546875 248.996094 C 400.394531 248.996094 398.648438 247.253906 398.648438 245.101562 C 398.648438 242.949219 400.394531 241.203125 402.546875 241.203125 Z M 402.546875 241.203125 "/>
<path style=" stroke:none;fill-rule:nonzero;fill:rgb(100%,100%,100%);fill-opacity:1;" d="M 424.40625 242.074219 L 513.480469 242.074219 C 514.136719 242.074219 514.671875 242.78125 514.671875 243.648438 L 514.671875 246.5625 C 514.671875 247.425781 514.136719 248.132812 513.480469 248.132812 L 424.40625 248.132812 C 423.75 248.132812 423.214844 247.425781 423.214844 246.5625 L 423.214844 243.648438 C 423.214844 242.78125 423.75 242.074219 424.40625 242.074219 Z M 424.40625 242.074219 "/>
<path style=" stroke:none;fill-rule:nonzero;fill:rgb(12.941176%,81.568627%,76.470588%);fill-opacity:1;" d="M 554.847656 319.449219 L 490.359375 319.449219 L 490.359375 312.320312 C 490.359375 312.082031 490.558594 311.886719 490.796875 311.886719 L 554.414062 311.886719 C 554.65625 311.886719 554.847656 312.082031 554.847656 312.320312 Z M 554.847656 319.449219 "/>
<path style=" stroke:none;fill-rule:nonzero;fill:rgb(100%,100%,100%);fill-opacity:1;" d="M 494.914062 313.167969 C 496.152344 313.167969 497.144531 314.164062 497.144531 315.394531 C 497.144531 316.621094 496.152344 317.621094 494.914062 317.621094 C 493.6875 317.621094 492.6875 316.621094 492.6875 315.394531 C 492.6875 314.164062 493.6875 313.167969 494.914062 313.167969 Z M 494.914062 313.167969 "/>
<path style=" stroke:none;fill-rule:nonzero;fill:rgb(92.54902%,94.117647%,94.509804%);fill-opacity:1;" d="M 501.1875 313.167969 C 502.417969 313.167969 503.414062 314.164062 503.414062 315.394531 C 503.414062 316.621094 502.417969 317.621094 501.1875 317.621094 C 499.953125 317.621094 498.960938 316.621094 498.960938 315.394531 C 498.960938 314.164062 499.953125 313.167969 501.1875 313.167969 Z M 501.1875 313.167969 "/>
<path style=" stroke:none;fill-rule:nonzero;fill:rgb(92.54902%,94.117647%,94.509804%);fill-opacity:1;" d="M 507.453125 313.167969 C 508.6875 313.167969 509.683594 314.164062 509.683594 315.394531 C 509.683594 316.621094 508.6875 317.621094 507.453125 317.621094 C 506.226562 317.621094 505.226562 316.621094 505.226562 315.394531 C 505.226562 314.164062 506.226562 313.167969 507.453125 313.167969 Z M 507.453125 313.167969 "/>
<path style=" stroke:none;fill-rule:nonzero;fill:rgb(100%,100%,100%);fill-opacity:1;" d="M 516.511719 313.457031 L 552.367188 313.457031 C 552.847656 313.457031 553.238281 313.84375 553.238281 314.324219 L 553.238281 316.652344 C 553.238281 317.136719 552.847656 317.523438 552.367188 317.523438 L 516.511719 317.523438 C 516.03125 317.523438 515.640625 317.136719 515.640625 316.652344 L 515.640625 314.324219 C 515.640625 313.84375 516.03125 313.457031 516.511719 313.457031 Z M 516.511719 313.457031 "/>
<path style=" stroke:none;fill-rule:nonzero;fill:rgb(92.54902%,94.117647%,94.509804%);fill-opacity:1;" d="M 493.488281 321.886719 L 551.726562 321.886719 L 551.726562 356.214844 L 493.488281 356.214844 Z M 493.488281 321.886719 "/>
<path style=" stroke:none;fill-rule:nonzero;fill:rgb(98.039216%,82.352941%,30.196078%);fill-opacity:1;" d="M 524.316406 363.25 C 530.289062 363.25 535.125 368.089844 535.125 374.058594 C 535.125 380.03125 530.289062 384.867188 524.316406 384.867188 C 518.347656 384.867188 513.507812 380.03125 513.507812 374.058594 C 513.507812 368.089844 518.347656 363.25 524.316406 363.25 Z M 524.316406 363.25 "/>
<path style=" stroke:none;fill-rule:nonzero;fill:rgb(86.27451%,89.019608%,85.882353%);fill-opacity:1;" d="M 505.558594 392.742188 L 543.074219 392.742188 L 543.074219 395.390625 L 505.558594 395.390625 Z M 505.558594 409.414062 L 530.761719 409.414062 L 530.761719 412.066406 L 505.558594 412.066406 Z M 505.558594 401.078125 L 543.074219 401.078125 L 543.074219 403.726562 L 505.558594 403.726562 Z M 505.558594 401.078125 "/>
<path style=" stroke:none;fill-rule:nonzero;fill:rgb(92.941176%,72.54902%,21.568627%);fill-opacity:1;" d="M 44.894531 438.601562 L 525.109375 438.601562 C 523.523438 441.085938 521.878906 443.527344 520.214844 445.957031 L 49.792969 445.957031 C 48.125 443.527344 46.480469 441.085938 44.894531 438.601562 Z M 44.894531 438.601562 "/>
<path style=" stroke:none;fill-rule:nonzero;fill:rgb(71.372549%,71.372549%,72.156863%);fill-opacity:1;" d="M 425.457031 227.0625 L 463.34375 227.0625 C 463.882812 227.0625 464.316406 227.496094 464.316406 228.039062 L 464.316406 228.042969 C 464.316406 228.578125 463.882812 229.015625 463.34375 229.015625 L 425.457031 229.015625 C 424.914062 229.015625 424.480469 228.578125 424.480469 228.042969 L 424.480469 228.039062 C 424.480469 227.496094 424.914062 227.0625 425.457031 227.0625 Z M 425.457031 227.0625 "/>
</g>
</svg>
