<?xml version="1.0" encoding="UTF-8"?>
<svg xmlns="http://www.w3.org/2000/svg" xmlns:xlink="http://www.w3.org/1999/xlink" width="570px" height="570px" viewBox="0 0 570 324" version="1.1">
<g id="surface1">
<path style=" stroke:none;fill-rule:evenodd;fill:rgb(20%,20%,20%);fill-opacity:1;" d="M 76.972656 0 L 490.351562 0 C 495.789062 0.0234375 500.191406 4.421875 500.214844 9.851562 L 500.214844 181.90625 L 484.730469 171.460938 L 484.730469 41.011719 L 83.792969 41.011719 L 83.792969 282.390625 L 484.730469 282.390625 L 484.730469 256.707031 L 500.214844 263.65625 L 500.214844 287.542969 C 500.199219 289.570312 499.574219 291.542969 498.417969 293.207031 L 552.613281 293.207031 C 560.800781 293.652344 567.210938 300.414062 567.210938 308.601562 C 567.210938 316.792969 560.800781 323.554688 552.613281 324 L 17.292969 324 C 11.585938 324.3125 6.171875 321.449219 3.222656 316.554688 C 0.273438 311.664062 0.273438 305.542969 3.222656 300.652344 C 6.171875 295.757812 11.585938 292.894531 17.292969 293.207031 L 68.910156 293.207031 C 67.734375 291.550781 67.105469 289.574219 67.113281 287.542969 L 67.113281 9.851562 C 67.113281 4.410156 71.527344 0 76.972656 0 Z M 134.304688 15.878906 C 137.585938 15.878906 140.246094 18.539062 140.246094 21.816406 C 140.246094 25.097656 137.585938 27.753906 134.304688 27.753906 C 131.019531 27.753906 128.359375 25.097656 128.359375 21.816406 C 128.359375 18.539062 131.019531 15.878906 134.304688 15.878906 Z M 113.519531 15.878906 C 116.800781 15.878906 119.464844 18.539062 119.464844 21.816406 C 119.464844 25.097656 116.800781 27.753906 113.519531 27.753906 C 110.234375 27.753906 107.574219 25.097656 107.574219 21.816406 C 107.574219 18.539062 110.234375 15.878906 113.519531 15.878906 Z M 92.734375 15.878906 C 96.019531 15.878906 98.679688 18.539062 98.679688 21.816406 C 98.679688 25.097656 96.019531 27.753906 92.734375 27.753906 C 89.453125 27.753906 86.789062 25.097656 86.789062 21.816406 C 86.789062 18.539062 89.453125 15.878906 92.734375 15.878906 Z M 268.777344 301.261719 L 301.039062 301.261719 C 304.089844 301.261719 306.566406 303.734375 306.566406 306.785156 C 306.566406 309.835938 304.089844 312.308594 301.039062 312.308594 L 268.777344 312.308594 C 265.722656 312.308594 263.246094 309.835938 263.246094 306.785156 C 263.246094 303.734375 265.722656 301.261719 268.777344 301.261719 Z M 268.777344 301.261719 "/>
<path style=" stroke:none;fill-rule:evenodd;fill:rgb(80%,80%,80%);fill-opacity:1;" d="M 173.519531 207.363281 C 169.28125 207.363281 169.28125 191.621094 173.519531 191.621094 L 343.664062 191.621094 C 350.730469 196.460938 358.949219 199.351562 367.492188 199.996094 C 373.902344 200.644531 380.378906 200.066406 386.570312 198.292969 L 395.28125 207.5 Z M 118.726562 207.363281 C 114.53125 207.363281 114.53125 191.621094 118.726562 191.621094 L 158.542969 191.621094 C 162.738281 191.621094 162.738281 207.363281 158.542969 207.363281 Z M 117.390625 174.449219 C 113.148438 174.449219 113.148438 158.707031 117.390625 158.707031 L 157.160156 158.707031 C 161.355469 158.707031 161.355469 174.449219 157.160156 174.449219 Z M 173.519531 174.449219 C 169.28125 174.449219 169.28125 158.707031 173.519531 158.707031 L 321.222656 158.707031 L 321.683594 159.722656 C 324.035156 164.785156 326.292969 169.757812 329.011719 174.449219 Z M 173.519531 174.449219 "/>
<path style=" stroke:none;fill-rule:evenodd;fill:rgb(51.372549%,70.196078%,84.313725%);fill-opacity:1;" d="M 362.054688 59.839844 L 440.398438 59.839844 C 443.808594 59.75 447.109375 61.03125 449.566406 63.390625 C 452.027344 65.753906 453.4375 68.996094 453.484375 72.402344 L 453.484375 122.347656 C 453.460938 129.351562 447.78125 135.023438 440.765625 135.050781 L 414.359375 135.050781 C 412.210938 130.875 409.5 127.019531 406.296875 123.589844 C 396.609375 113.589844 384.15625 106.699219 370.535156 103.796875 C 363.539062 102.269531 356.402344 101.5 349.242188 101.496094 L 349.242188 72.402344 C 349.34375 65.417969 355.058594 59.8125 362.054688 59.839844 Z M 362.054688 59.839844 "/>
<path style=" stroke:none;fill-rule:evenodd;fill:rgb(22.745098%,56.862745%,74.509804%);fill-opacity:1;" d="M 244.628906 59.839844 L 322.972656 59.839844 C 329.96875 59.886719 335.621094 65.554688 335.648438 72.542969 L 335.648438 102.230469 C 329.242188 102.875 323.34375 103.796875 318.410156 104.714844 C 307.210938 106.902344 299.839844 117.664062 301.867188 128.882812 C 302.253906 131.074219 303.003906 133.191406 304.078125 135.140625 L 244.628906 135.140625 C 237.625 135.117188 231.957031 129.4375 231.957031 122.4375 L 231.957031 72.402344 C 232.03125 65.460938 237.675781 59.863281 244.628906 59.839844 Z M 244.628906 59.839844 "/>
<path style=" stroke:none;fill-rule:evenodd;fill:rgb(91.372549%,58.823529%,53.333333%);fill-opacity:1;" d="M 127.207031 59.839844 L 205.550781 59.839844 C 212.582031 59.761719 218.351562 65.378906 218.453125 72.402344 L 218.453125 122.347656 C 218.402344 129.339844 212.738281 135 205.734375 135.050781 L 127.390625 135.050781 C 120.382812 135.023438 114.71875 129.34375 114.71875 122.347656 L 114.71875 72.402344 C 114.789062 65.53125 120.324219 59.960938 127.207031 59.839844 Z M 127.207031 59.839844 "/>
<path style=" stroke:none;fill-rule:evenodd;fill:rgb(20%,20%,20%);fill-opacity:1;" d="M 322.375 125.0625 C 343.757812 139.285156 340.808594 176.246094 369.65625 179.285156 C 377.933594 180.074219 386.164062 177.390625 392.378906 171.875 C 395.921875 168.648438 398.125 164.214844 398.550781 159.445312 C 400.394531 140.34375 382.882812 127.871094 366.292969 124.09375 C 351.808594 121.570312 336.964844 121.898438 322.605469 125.0625 Z M 409.9375 162.851562 C 408.847656 170.136719 405.003906 176.726562 399.199219 181.261719 L 421.226562 204.277344 C 431.375 193.894531 438.734375 181.117188 442.609375 167.132812 C 431.585938 166.914062 420.625 165.445312 409.9375 162.757812 Z M 448.140625 171.734375 C 444.015625 185.265625 436.964844 197.722656 427.492188 208.238281 L 529.664062 254.035156 C 531.792969 255.140625 534.054688 255.976562 536.390625 256.519531 C 540.074219 257.25 543.871094 256.03125 546.4375 253.296875 C 549.003906 250.566406 549.980469 246.703125 549.019531 243.082031 C 548 240.273438 546.027344 237.910156 543.441406 236.40625 L 448.140625 171.964844 Z M 448.140625 171.734375 "/>
</g>
</svg>
